<?xml version="1.0" encoding="UTF-8" standalone="no"?>
<!-- Created with Inkscape (http://www.inkscape.org/) -->

<svg
	xmlns:dc="http://purl.org/dc/elements/1.1/"
	height="256"
	xmlns:rdf="http://www.w3.org/1999/02/22-rdf-syntax-ns#"
	id="svg8"
	xmlns:sodipodi="http://sodipodi.sourceforge.net/DTD/sodipodi-0.dtd"
	version="1.1"
	viewBox="0 0 67.733332 67.733335"
	width="256"
	xmlns="http://www.w3.org/2000/svg"
	xmlns:cc="http://creativecommons.org/ns#"
	xmlns:inkscape="http://www.inkscape.org/namespaces/inkscape"
	inkscape:version="0.92.1 r15371"
	inkscape:export-filename="D:\workspaces\java-intellij\timesheetinator\img\logo-border.png"
	inkscape:export-xdpi="24.000002"
	inkscape:export-ydpi="24.000002"
	sodipodi:docname="logo.svg">
	<defs
		id="defs2"/>
	<sodipodi:namedview
		bordercolor="#666666"
		borderopacity="1.0"
		id="base"
		pagecolor="#ffffff"
		showgrid="true"
		units="px"
		inkscape:current-layer="layer1"
		inkscape:cx="99.403356"
		inkscape:cy="113.52017"
		inkscape:document-units="mm"
		inkscape:pageopacity="0.0"
		inkscape:pageshadow="2"
		inkscape:window-height="1017"
		inkscape:window-maximized="1"
		inkscape:window-width="1920"
		inkscape:window-x="1912"
		inkscape:window-y="-8"
		inkscape:zoom="2.8">
		<inkscape:grid
			empspacing="2"
			id="grid4504"
			type="xygrid"/>
	</sodipodi:namedview>
	<metadata
		id="metadata5">
		<rdf:RDF>
			<cc:Work
				rdf:about="">
				<dc:format>image/svg+xml</dc:format>
				<dc:type
					rdf:resource="http://purl.org/dc/dcmitype/StillImage"/>
				<dc:title/>
			</cc:Work>
		</rdf:RDF>
	</metadata>
	<g
		id="layer1"
		transform="translate(0,-229.26665)"
		inkscape:groupmode="layer"
		inkscape:label="Layer 1">
		<g
			id="g4496"
			transform="matrix(1.1210821,0,0,1.1210821,-4.1006475,-31.860737)">
			<path
				style="fill:#ffffff;fill-opacity:1;stroke-width:0.07176021"
				d="m 33.826766,236.81927 c -0.704218,0.085 -1.246581,0.63062 -1.882982,0.90313 -5.396458,2.95059 -11.174746,5.33832 -17.272074,6.334 -0.682477,0.18274 -1.472212,0.0675 -2.068166,0.49279 -0.727581,0.56951 -0.50442,1.57244 -0.550052,2.37383 -0.05332,7.88447 1.056416,15.87402 4.182704,23.16147 3.071074,7.22575 8.221987,13.59052 14.8359,17.8578 0.819604,0.50477 1.626218,1.07516 2.50407,1.47399 0.843324,0.1858 1.494022,-0.54141 2.183188,-0.88551 5.867791,-3.62748 10.757016,-8.81713 14.026321,-14.89989 4.24935,-7.81851 5.832341,-16.80472 5.893477,-25.62837 -0.02815,-0.95092 0.07252,-1.92069 -0.08746,-2.85891 -0.19037,-0.67762 -0.913884,-0.91783 -1.5456,-0.93814 -4.931428,-0.70216 -9.700927,-2.29461 -14.190658,-4.4296 -1.908297,-0.87908 -3.750912,-1.89391 -5.59993,-2.88581 -0.136849,-0.0499 -0.282865,-0.0766 -0.42874,-0.0708 z"
				id="path4505"
				inkscape:connector-curvature="0"/>
			<path
				style="fill:#3498db;fill-opacity:1;stroke:none;stroke-width:0.08580025px;stroke-linecap:butt;stroke-linejoin:miter;stroke-opacity:1"
				d="m 33.866667,262.60415 -5.027084,-5.02708 5.027084,1.32291 5.027083,-1.32291 z"
				id="path4566"
				inkscape:connector-curvature="0"
				sodipodi:nodetypes="ccccc"/>
			<path
				style="opacity:1;fill:#3498db;fill-opacity:1;stroke:none;stroke-width:0.02961853;stroke-linecap:butt;stroke-linejoin:round;stroke-miterlimit:4;stroke-dasharray:none;stroke-opacity:1;paint-order:normal"
				d="m 28.839583,268.68957 5.027084,-1.32292 5.027083,1.32292 v 4.49791 H 28.839583 Z"
				id="rect4562"
				inkscape:connector-curvature="0"
				sodipodi:nodetypes="cccccc"/>
			<g
				style="fill:#2c3e50;fill-opacity:1"
				id="g4495"
				transform="matrix(0.04295856,0,0,-0.04295856,26.348918,275.66287)">
				<path
					style="fill:#2c3e50;fill-opacity:1;fill-rule:nonzero;stroke:none"
					d="M 175,306.25 58.332,422.918 V 525 H 291.668 V 422.918 Z M 291.668,160.418 V 58.332 H 58.332 V 160.418 L 175,277.082 Z M 0,583.332 v -175 H 0.292969 L 0,408.043 116.668,291.668 0,175 0.292969,174.707 H 0 V 0 h 350 v 174.707 h -0.293 L 350,175 233.332,291.668 350,408.043 l -0.293,0.289 H 350 v 175 H 0"
					id="path4497"
					inkscape:connector-curvature="0"/>
			</g>
			<path
				style="fill:#2c3e50;fill-opacity:1;stroke-width:0.07176021"
				d="m 55.804663,245.53794 c -0.01608,-0.70031 -0.517822,-1.30439 -1.218632,-1.40012 -3.266597,-0.44864 -6.488271,-1.22918 -9.646438,-2.38588 -3.143241,-1.15118 -6.6211,-2.75817 -10.372221,-4.87467 -0.476272,-0.26889 -0.924271,-0.27054 -1.400042,0 -3.725144,2.11542 -7.178102,3.71904 -10.346171,4.87467 -3.159172,1.15233 -6.379268,1.93781 -9.619887,2.38588 -0.700882,0.0968 -1.192655,0.69981 -1.270658,1.40012 -0.310865,13.3019 2.602743,24.18577 8.712694,32.64616 3.328525,4.60858 7.49399,8.34923 12.524022,11.20148 0.388869,0.28546 0.998544,0.26386 1.452068,0 4.991927,-2.89983 9.151867,-6.61335 12.472714,-11.20148 6.11806,-8.45486 9.007916,-19.34376 8.712551,-32.64616 z m -11.046552,31.01261 c -2.886554,3.98728 -6.50822,7.312 -10.890473,9.9827 -4.382324,-2.67077 -8.021141,-5.98322 -10.890545,-9.9827 -5.558402,-7.74738 -8.271727,-17.65875 -8.168321,-29.74195 3.05964,-0.49285 6.093877,-1.32269 9.12754,-2.43784 3.033663,-1.11465 6.352788,-2.6448 9.931326,-4.58921 3.578538,1.94441 6.871543,3.47456 9.905277,4.58921 3.033663,1.11522 6.093303,1.94499 9.153517,2.43784 0.103479,12.1612 -2.627069,22.08643 -8.168321,29.74195 z"
				id="path4502"
				inkscape:connector-curvature="0"/>
		</g>
	</g>
</svg>
