<?xml version="1.0" encoding="UTF-8" standalone="no"?>
<!--
  ~ Copyright 2017 Sebastian Raubach
  ~
  ~ Licensed under the Apache License, Version 2.0 (the "License");
  ~ you may not use this file except in compliance with the License.
  ~ You may obtain a copy of the License at
  ~
  ~      http://www.apache.org/licenses/LICENSE-2.0
  ~
  ~ Unless required by applicable law or agreed to in writing, software
  ~ distributed under the License is distributed on an "AS IS" BASIS,
  ~ WITHOUT WARRANTIES OR CONDITIONS OF ANY KIND, either express or implied.
  ~ See the License for the specific language governing permissions and
  ~ limitations under the License.
  -->

<!-- Created with Inkscape (http://www.inkscape.org/) -->

<svg
	height="288"
	id="svg8"
	version="1.1"
	viewBox="0 0 76.200001 76.199999"
	width="288"
	xmlns="http://www.w3.org/2000/svg"
	xmlns:cc="http://creativecommons.org/ns#"
	xmlns:dc="http://purl.org/dc/elements/1.1/"
	xmlns:inkscape="http://www.inkscape.org/namespaces/inkscape"
	xmlns:rdf="http://www.w3.org/1999/02/22-rdf-syntax-ns#"
	xmlns:sodipodi="http://sodipodi.sourceforge.net/DTD/sodipodi-0.dtd"
	xmlns:xlink="http://www.w3.org/1999/xlink"
	inkscape:version="0.92.1 r15371"
	sodipodi:docname="logo.svg">
	<sodipodi:namedview
		bordercolor="#666666"
		borderopacity="1.0"
		fit-margin-bottom="0"
		fit-margin-left="0"
		fit-margin-right="0"
		fit-margin-top="0"
		id="base"
		pagecolor="#ffffff"
		showgrid="true"
		units="px"
		inkscape:current-layer="layer1"
		inkscape:cx="705.72316"
		inkscape:cy="63.719818"
		inkscape:document-units="mm"
		inkscape:pageopacity="0.0"
		inkscape:pageshadow="2"
		inkscape:window-height="1017"
		inkscape:window-maximized="1"
		inkscape:window-width="1920"
		inkscape:window-x="-8"
		inkscape:window-y="-8"
		inkscape:zoom="0.98332037">
		<inkscape:grid
			empspacing="2"
			id="grid4485"
			originx="4.2333332"
			originy="4.2333274"
			type="xygrid"/>
	</sodipodi:namedview>
	<defs
		id="defs2">
		<linearGradient
			id="linearGradient6581"
			inkscape:collect="always">
			<stop
				style="stop-color:#03a9f4;stop-opacity:1"
				id="stop6577"
				offset="0"/>
			<stop
				style="stop-color:#03a9f4;stop-opacity:0"
				id="stop6579"
				offset="1"/>
		</linearGradient>
		<linearGradient
			gradientTransform="translate(15.999999,-81.285165)"
			gradientUnits="userSpaceOnUse"
			id="linearGradient6583"
			x1="60"
			x2="192"
			y1="64.000015"
			y2="196.00002"
			inkscape:collect="always"
			xlink:href="#linearGradient6581"/>
	</defs>
	<metadata
		id="metadata5">
		<rdf:RDF>
			<cc:Work
				rdf:about="">
				<dc:format>image/svg+xml</dc:format>
				<dc:type
					rdf:resource="http://purl.org/dc/dcmitype/StillImage"/>
				<dc:title></dc:title>
			</cc:Work>
		</rdf:RDF>
	</metadata>
	<g
		id="layer1"
		transform="translate(4.2333331,-225.03333)"
		inkscape:groupmode="layer"
		inkscape:label="Layer 1">
		<rect
			style="opacity:1;fill:#424242;fill-opacity:1;stroke:none;stroke-width:0.26458332;stroke-miterlimit:4;stroke-dasharray:none;stroke-opacity:1"
			height="76.199997"
			id="rect6585"
			ry="2.116672"
			width="76.199997"
			x="-4.2333331"
			y="225.03333"/>
		<path
			style="opacity:1;fill:#03a9f4;fill-opacity:1;stroke:none;stroke-width:0.32831308;stroke-miterlimit:4;stroke-dasharray:none;stroke-opacity:1"
			d="M 128,0 C 57.307551,-5.5228482e-6 -5.5228482e-6,57.307551 0,128 0.01797514,195.57974 52.569374,251.50235 120.01758,255.7168 l 1.0039,-16.06446 C 62.040302,235.97021 16.068617,187.09597 16,128 16,66.144109 66.144109,16 128,16 c 12.35118,0.06597 24.59327,2.177479 36.23633,6.232422 l -3.5,7.505859 L 182,22 174.26172,0.73632812 171.06836,7.5839844 C 157.26147,2.6095851 142.69492,0.03619975 128,0 Z m 70.74414,21.425781 -8.83984,13.316407 c 12.43967,8.253759 23.10372,18.911173 31.36523,31.345703 L 234.5332,57.283203 C 225.11165,43.06567 212.94367,30.874448 198.74414,21.425781 Z m 43.70703,49.701172 -14.27344,7.091797 c 6.67189,13.351746 10.60771,27.90241 11.57618,42.79687 l 15.82031,-0.98828 c -1.07479,-17.01131 -5.5364,-33.636621 -13.12305,-48.900387 z m -2.80273,63.851567 c -0.93621,14.88874 -4.83743,29.44043 -11.47461,42.80078 l 14.1289,7.01953 c 7.63173,-15.22888 12.14701,-31.82788 13.28125,-48.82422 z m -18.51953,54.83984 c -8.23514,12.43041 -18.86947,23.0913 -31.2793,31.35742 l 8.72851,13.14844 c 14.19005,-9.4038 26.36176,-21.54365 35.80274,-35.70899 z m -43.38868,38.2793 c -13.33347,6.69371 -27.86994,10.65602 -42.75585,11.65429 l 0.99023,15.84961 c 17.00716,-1.10488 33.62243,-5.59503 48.87109,-13.20703 z"
			id="path4487"
			transform="matrix(0.26458333,0,0,0.26458333,0,229.26666)"
			inkscape:connector-curvature="0"/>
		<path
			style="opacity:1;fill:url(#linearGradient6583);fill-opacity:1;stroke:none;stroke-width:0.99999994;stroke-miterlimit:4;stroke-dasharray:none;stroke-opacity:1"
			d="m 138,-53.285156 v 94.71875 a 7.9999994,7.9999994 0 0 0 -1.68555,3.083984 L 79,77.609375 85,88 85.126953,87.92773 c 0.0235,0.0407 0.271484,0.470703 0.271485,0.470704 0,0 0.126391,-0.07392 0.126953,-0.07422 l 0.273437,0.474609 c 4e-6,0 0.126397,-0.07187 0.126953,-0.07227 0.02349,0.0407 0.271485,0.470704 0.271485,0.470704 l 0.126953,-0.07422 c 0.02386,0.0413 0.273437,0.474609 0.273437,0.474609 8e-6,0 0.126393,-0.07187 0.126953,-0.07227 0.02349,0.0407 0.271485,0.470703 0.271485,0.470703 1e-5,-10e-6 0.126391,-0.07187 0.126953,-0.07227 0.02349,0.0407 0.271484,0.470703 0.271484,0.470703 1.2e-5,-1e-5 0.126382,-0.07392 0.126953,-0.07422 0.02386,0.0413 0.273438,0.47461 0.273438,0.47461 1.4e-5,-10e-6 0.126387,-0.07187 0.126953,-0.07227 0.02349,0.0407 0.271484,0.470703 0.271484,0.470703 1.6e-5,-1e-5 0.126379,-0.07392 0.126953,-0.07422 0.02386,0.0413 0.273438,0.474609 0.273438,0.474609 1.7e-5,-10e-6 0.126384,-0.07187 0.126953,-0.07227 0.02349,0.0407 0.271485,0.470704 0.271485,0.470704 1.8e-5,0 0.126381,-0.07187 0.126953,-0.07227 0.02349,0.0407 0.271484,0.470703 0.271484,0.470703 2.2e-5,-2e-5 0.126372,-0.07392 0.126953,-0.07422 0.02386,0.0413 0.273438,0.47461 0.273438,0.47461 2.3e-5,-1e-5 0.126377,-0.07187 0.126953,-0.07227 0.02349,0.0407 0.271484,0.470703 0.271484,0.470703 2.6e-5,-2e-5 0.126375,-0.07187 0.126953,-0.07227 0.02349,0.0407 0.271485,0.470703 0.271485,0.470703 h 0.002 c 2.7e-5,-2e-5 0.124433,-0.07187 0.125,-0.07227 0.02371,0.0411 0.273437,0.472656 0.273437,0.472656 3e-5,-2e-5 0.126372,-0.07187 0.126953,-0.07227 0.02349,0.0407 0.271485,0.470703 0.271485,0.470703 3.1e-5,-2e-5 0.126362,-0.07392 0.126953,-0.07422 0.02385,0.0413 0.273437,0.474609 0.273437,0.474609 3.3e-5,-2e-5 0.126369,-0.07187 0.126953,-0.07227 0.02348,0.0407 0.271485,0.470703 0.271485,0.470703 3.5e-5,-1e-5 0.126365,-0.07187 0.126953,-0.07227 0.02348,0.0407 0.271484,0.470703 0.271484,0.470703 3.8e-5,-2e-5 0.126357,-0.07392 0.126954,-0.07422 0.02385,0.0413 0.273437,0.474609 0.273437,0.474609 3.9e-5,-2e-5 0.126362,-0.07187 0.126953,-0.07227 0.02348,0.0407 0.271484,0.470704 0.271484,0.470703 4.2e-5,-2.9e-5 0.126353,-0.07392 0.126954,-0.07422 0.02385,0.0413 0.273437,0.474609 0.273437,0.474609 4.3e-5,-3e-5 0.126358,-0.07187 0.126953,-0.07227 0.02348,0.0407 0.271485,0.470703 0.271485,0.470703 4.4e-5,-3e-5 0.126356,-0.07187 0.126953,-0.07227 0.02348,0.0407 0.271484,0.470703 0.271484,0.470703 4.8e-5,-2e-5 0.126346,-0.07392 0.126953,-0.07422 0.02385,0.0413 0.273438,0.47461 0.273438,0.47461 4.9e-5,-2e-5 0.126352,-0.07187 0.126953,-0.07227 0.02348,0.0407 0.271484,0.470703 0.271484,0.470703 5.2e-5,-3e-5 0.126342,-0.07392 0.126953,-0.07422 0.02385,0.0413 0.273438,0.474609 0.273438,0.474609 5.3e-5,-3e-5 0.126348,-0.07187 0.126953,-0.07227 0.02348,0.0407 0.271484,0.470703 0.271484,0.470703 5.5e-5,-3e-5 0.126347,-0.07187 0.126954,-0.07227 0.02348,0.0407 0.271484,0.470703 0.271484,0.470703 5.7e-5,-4e-5 0.126336,-0.07392 0.126953,-0.07422 0.02384,0.0413 0.273437,0.474609 0.273437,0.474609 5.9e-5,-2.9e-5 0.126343,-0.07187 0.126954,-0.07227 0.02347,0.0406 0.271484,0.470705 0.271484,0.470705 6.1e-5,-4e-5 0.126333,-0.0739 0.126953,-0.0742 0.02377,0.0412 0.273361,0.47253 0.273438,0.47266 6.2e-5,-3e-5 0.124398,-0.0719 0.125,-0.0723 0.0237,0.041 0.273437,0.47266 0.273437,0.47266 6.5e-5,-4e-5 0.126337,-0.0719 0.126953,-0.0723 0.02347,0.0406 0.271485,0.47071 0.271485,0.47071 6.6e-5,-4e-5 0.126327,-0.0738 0.126953,-0.0742 0.02384,0.0413 0.273437,0.47461 0.273437,0.47461 6.9e-5,-4e-5 0.126333,-0.0719 0.126953,-0.0723 0.02347,0.0406 0.271485,0.4707 0.271485,0.4707 7e-5,-4e-5 0.126331,-0.0719 0.126953,-0.0723 0.02348,0.0407 0.271484,0.4707 0.271484,0.4707 h 0.002 c 7.2e-5,-4e-5 0.124389,-0.0719 0.125,-0.0723 0.0237,0.041 0.273432,0.47265 0.273432,0.47265 8e-5,-4e-5 0.12633,-0.0719 0.12696,-0.0723 0.0235,0.0406 0.27148,0.4707 0.27148,0.4707 8e-5,-5e-5 0.12632,-0.0739 0.12695,-0.0742 0.0238,0.0413 0.27344,0.47461 0.27344,0.47461 8e-5,-5e-5 0.12632,-0.0719 0.12695,-0.0723 0.0235,0.0406 0.27149,0.47071 0.27149,0.47071 8e-5,-5e-5 0.12632,-0.0719 0.12695,-0.0723 0.0235,0.0406 0.27148,0.47071 0.27148,0.4707 h 0.002 c 8e-5,-4e-5 0.12438,-0.0719 0.125,-0.0723 0.0237,0.041 0.27344,0.47266 0.27344,0.47266 8e-5,-5e-5 0.12631,-0.0719 0.12695,-0.0723 0.0235,0.0406 0.27148,0.4707 0.27148,0.4707 9e-5,-5e-5 0.12631,-0.0739 0.12696,-0.0742 0.0238,0.0413 0.27343,0.47461 0.27343,0.47461 9e-5,-5e-5 0.12632,-0.0719 0.12696,-0.0723 0.0235,0.0406 0.27148,0.4707 0.27148,0.4707 9e-5,-5e-5 0.12631,-0.0719 0.12695,-0.0723 0.0235,0.0406 0.27149,0.4707 0.27149,0.4707 h 0.002 c 9e-5,-5e-5 0.12437,-0.0719 0.125,-0.0723 0.0237,0.041 0.27344,0.47266 0.27344,0.47266 9e-5,-6e-5 0.12631,-0.0719 0.12695,-0.0723 0.0235,0.0406 0.27149,0.47071 0.27149,0.47071 9e-5,-6e-5 0.1263,-0.0738 0.12695,-0.0742 0.0238,0.0412 0.27336,0.47252 0.27344,0.47265 9e-5,-6e-5 0.12436,-0.0719 0.125,-0.0723 0.0237,0.041 0.27343,0.47266 0.27344,0.47266 9e-5,-6e-5 0.1263,-0.0719 0.12695,-0.0723 0.0235,0.0406 0.27148,0.4707 0.27148,0.4707 1.1e-4,-6e-5 0.12629,-0.0738 0.12696,-0.0742 0.0238,0.0413 0.27343,0.47461 0.27343,0.47461 1.1e-4,-6e-5 0.1263,-0.0719 0.12696,-0.0723 0.0235,0.0406 0.27148,0.4707 0.27148,0.4707 1.1e-4,-6e-5 0.12629,-0.0738 0.12695,-0.0742 0.0238,0.0411 0.27336,0.47253 0.27344,0.47266 1.1e-4,-6e-5 0.12436,-0.0738 0.125,-0.0742 0.0237,0.041 0.27344,0.47266 0.27344,0.47266 1.1e-4,-6e-5 0.12629,-0.0719 0.12695,-0.0723 0.0235,0.0406 0.27149,0.4707 0.27149,0.4707 1.1e-4,-6e-5 0.12628,-0.0738 0.12695,-0.0742 0.0238,0.0413 0.27344,0.47461 0.27344,0.47461 1.1e-4,-6e-5 0.12629,-0.0719 0.12695,-0.0723 0.0234,0.0406 0.27148,0.4707 0.27148,0.4707 1.2e-4,-7e-5 0.12629,-0.0719 0.12696,-0.0723 0.0235,0.0406 0.27148,0.4707 0.27148,0.4707 h 0.002 c 1.2e-4,-7e-5 0.12435,-0.0719 0.125,-0.0723 0.0237,0.041 0.27344,0.47266 0.27344,0.47266 1.2e-4,-7e-5 0.12628,-0.0719 0.12696,-0.0723 0.0234,0.0406 0.27148,0.47071 0.27148,0.47071 1.2e-4,-7e-5 0.12627,-0.0738 0.12695,-0.0742 0.0238,0.0413 0.27344,0.47461 0.27344,0.47461 1.2e-4,-8e-5 0.12628,-0.0719 0.12695,-0.0723 0.0235,0.0406 0.27149,0.47071 0.27149,0.47071 1.2e-4,-7e-5 0.12628,-0.0719 0.12695,-0.0723 0.0235,0.0406 0.27149,0.4707 0.27149,0.4707 h 0.002 c 1.2e-4,-7e-5 0.12433,-0.0719 0.125,-0.0723 0.0237,0.041 0.27344,0.47265 0.27344,0.47265 1.3e-4,-7e-5 0.12627,-0.0719 0.12695,-0.0723 0.0234,0.0406 0.27148,0.4707 0.27148,0.4707 1.4e-4,-7e-5 0.12627,-0.0738 0.12696,-0.0742 0.0238,0.0412 0.27343,0.47461 0.27343,0.47461 1.4e-4,-7e-5 0.12627,-0.0719 0.12696,-0.0723 0.0235,0.0406 0.27148,0.4707 0.27148,0.4707 1.4e-4,-8e-5 0.12627,-0.0719 0.12696,-0.0723 0.0234,0.0406 0.27148,0.47071 0.27148,0.47071 h 0.002 c 1.4e-4,-9e-5 0.12433,-0.0719 0.125,-0.0723 0.0237,0.041 0.27344,0.47266 0.27344,0.47266 1.4e-4,-9e-5 0.12626,-0.0719 0.12695,-0.0723 0.0235,0.0406 0.27149,0.4707 0.27149,0.4707 1.4e-4,-8e-5 0.12625,-0.0738 0.12695,-0.0742 0.0237,0.0411 0.27336,0.47252 0.27344,0.47265 1.4e-4,-8e-5 0.12432,-0.0719 0.125,-0.0723 0.0237,0.041 0.27344,0.47265 0.27344,0.47265 1.4e-4,-8e-5 0.12625,-0.0719 0.12695,-0.0723 0.0234,0.0406 0.27148,0.4707 0.27148,0.4707 h 0.002 c 1.4e-4,-8e-5 0.12431,-0.0719 0.125,-0.0723 0.0237,0.041 0.27343,0.47266 0.27343,0.47266 1.5e-4,-9e-5 0.12626,-0.0719 0.12696,-0.0723 0.0234,0.0406 0.27148,0.47071 0.27148,0.47071 1.5e-4,-9e-5 0.12624,-0.0738 0.12695,-0.0742 0.0237,0.0411 0.27337,0.47252 0.27344,0.47266 1.5e-4,-9e-5 0.12431,-0.0719 0.125,-0.0723 0.0237,0.041 0.27344,0.47266 0.27344,0.47266 1.5e-4,-9e-5 0.12625,-0.0719 0.12695,-0.0723 0.0234,0.0406 0.27149,0.4707 0.27149,0.4707 h 0.002 c 1.5e-4,-9e-5 0.12431,-0.0719 0.125,-0.0723 0.0237,0.041 0.27344,0.47265 0.27344,0.47265 1.6e-4,-9e-5 0.12624,-0.0719 0.12695,-0.0723 0.0234,0.0406 0.27149,0.4707 0.27149,0.4707 1.5e-4,-9e-5 0.12624,-0.0719 0.12695,-0.0723 0.0235,0.0406 0.27148,0.4707 0.27148,0.4707 h 0.002 c 1.6e-4,-9e-5 0.1243,-0.0719 0.125,-0.0723 0.0237,0.041 0.27343,0.47266 0.27343,0.47266 1.7e-4,-10e-5 0.12624,-0.0719 0.12696,-0.0723 0.0234,0.0406 0.27148,0.47071 0.27148,0.47071 1.7e-4,-1e-4 0.12623,-0.0738 0.12695,-0.0742 0.0238,0.0412 0.27344,0.47461 0.27344,0.47461 1.7e-4,-1e-4 0.12624,-0.0718 0.12695,-0.0723 0.0234,0.0406 0.27149,0.47071 0.27149,0.47071 1.7e-4,-9e-5 0.12623,-0.0718 0.12695,-0.0723 0.0234,0.0406 0.27149,0.4707 0.27149,0.4707 h 0.002 c 1.7e-4,-10e-5 0.12429,-0.0719 0.125,-0.0723 0.0237,0.041 0.27344,0.47265 0.27344,0.47265 1.7e-4,-1e-4 0.12622,-0.0718 0.12695,-0.0723 0.0234,0.0406 0.27148,0.4707 0.27148,0.4707 1.8e-4,-1e-4 0.12622,-0.0738 0.12696,-0.0742 0.0237,0.0411 0.27337,0.47253 0.27343,0.47266 1.8e-4,-1e-4 0.1243,-0.0719 0.125,-0.0723 0.0237,0.041 0.27344,0.47266 0.27344,0.47266 1.8e-4,-1.1e-4 0.12622,-0.0718 0.12696,-0.0723 0.0234,0.0406 0.27148,0.47071 0.27148,0.47071 h 0.002 c 1.8e-4,-1.1e-4 0.12429,-0.0718 0.125,-0.0723 0.0237,0.041 0.27344,0.47266 0.27344,0.47266 1.8e-4,-1.1e-4 0.12622,-0.0718 0.12695,-0.0723 0.0234,0.0406 0.27149,0.4707 0.27149,0.47071 1.9e-4,-1e-4 0.12621,-0.0738 0.12695,-0.0742 0.0237,0.0411 0.27336,0.47252 0.27344,0.47265 1.8e-4,-1.1e-4 0.12427,-0.0718 0.125,-0.0723 0.0237,0.041 0.27344,0.47265 0.27344,0.47265 1.9e-4,-1.1e-4 0.12621,-0.0718 0.12695,-0.0723 0.0234,0.0406 0.27148,0.4707 0.27148,0.4707 h 0.002 c 1.9e-4,-1.1e-4 0.12427,-0.0719 0.125,-0.0723 0.0236,0.041 0.27343,0.47265 0.27343,0.47265 2e-4,-1.1e-4 0.12621,-0.0718 0.12696,-0.0723 0.0234,0.0406 0.27148,0.4707 0.27148,0.4707 2e-4,-1.2e-4 0.1262,-0.0738 0.12696,-0.0742 0.0237,0.0411 0.27336,0.47252 0.27343,0.47266 2e-4,-1.2e-4 0.12427,-0.0719 0.125,-0.0723 0.0236,0.041 0.27344,0.47266 0.27344,0.47266 2e-4,-1.2e-4 0.1262,-0.0718 0.12695,-0.0723 0.0234,0.0406 0.27149,0.4707 0.27149,0.4707 h 0.002 c 2e-4,-1.1e-4 0.12426,-0.0718 0.125,-0.0723 0.0237,0.0409 0.27344,0.47265 0.27344,0.47265 2e-4,-1e-4 0.1262,-0.0718 0.12695,-0.0723 0.0234,0.0406 0.27149,0.4707 0.27149,0.4707 2e-4,-1.2e-4 0.12619,-0.0718 0.12695,-0.0723 0.0234,0.0406 0.27148,0.4707 0.27148,0.4707 h 0.002 c 2e-4,-1.2e-4 0.12425,-0.0718 0.125,-0.0723 0.0236,0.0409 0.27343,0.47266 0.27343,0.47266 2.1e-4,-1.2e-4 0.1262,-0.0718 0.12696,-0.0723 0.0234,0.0406 0.27148,0.47071 0.27148,0.47071 h 0.002 c 2.2e-4,-1.2e-4 0.1262,-0.0718 0.12696,-0.0723 0.0235,0.0407 0.27141,0.47057 0.27148,0.47071 2.1e-4,-1.3e-4 0.12425,-0.0718 0.125,-0.0723 0.0236,0.0409 0.27344,0.47266 0.27344,0.47266 2.1e-4,-1.3e-4 0.12619,-0.0718 0.12695,-0.0723 0.0234,0.0406 0.27149,0.4707 0.27149,0.4707 h 0.002 c 2.1e-4,-1.2e-4 0.12425,-0.0718 0.125,-0.0723 0.0236,0.041 0.27344,0.47265 0.27344,0.47265 2.2e-4,-1.2e-4 0.12618,-0.0718 0.12695,-0.0723 0.0234,0.0405 0.27149,0.4707 0.27149,0.4707 h 0.002 c 2.2e-4,-1.3e-4 0.12618,-0.0718 0.12695,-0.0723 0.0235,0.0407 0.27141,0.47057 0.27149,0.4707 2.2e-4,-1.3e-4 0.12424,-0.0718 0.125,-0.0723 0.0236,0.0409 0.27343,0.47266 0.27343,0.47266 2.3e-4,-1.3e-4 0.12618,-0.0718 0.12696,-0.0723 0.0234,0.0406 0.27148,0.47071 0.27148,0.47071 h 0.002 c 2.3e-4,-1.3e-4 0.12424,-0.0718 0.125,-0.0723 0.0236,0.0409 0.27344,0.47266 0.27344,0.47266 2.3e-4,-1.3e-4 0.12618,-0.0718 0.12695,-0.0723 0.0234,0.0405 0.27149,0.47071 0.27149,0.47071 2.3e-4,-1.3e-4 0.12616,-0.0738 0.12695,-0.0742 0.0237,0.0411 0.27336,0.47252 0.27344,0.47265 2.3e-4,-1.3e-4 0.12423,-0.0718 0.125,-0.0723 0.0236,0.0409 0.27344,0.47265 0.27344,0.47265 2.3e-4,-1.3e-4 0.12616,-0.0718 0.12695,-0.0723 0.0234,0.0405 0.27148,0.4707 0.27148,0.4707 h 0.002 c 2.3e-4,-1.3e-4 0.12423,-0.0718 0.125,-0.0723 0.0236,0.0409 0.27343,0.47265 0.27343,0.47265 2.4e-4,-1.4e-4 0.12617,-0.0718 0.12696,-0.0723 0.0234,0.0405 0.27148,0.4707 0.27148,0.4707 2.4e-4,-1.4e-4 0.12616,-0.0738 0.12696,-0.0742 0.0237,0.0411 0.27336,0.47252 0.27343,0.47266 2.4e-4,-1.4e-4 0.12423,-0.0718 0.125,-0.0723 0.0236,0.0409 0.27344,0.47266 0.27344,0.47266 2.5e-4,-1.4e-4 0.12616,-0.0718 0.12695,-0.0723 0.0234,0.0405 0.27149,0.4707 0.27149,0.47071 h 0.004 c 2.5e-4,-1.4e-4 0.12617,-0.0718 0.12696,-0.0723 0.0235,0.0406 0.2714,0.47057 0.27148,0.4707 2.4e-4,-1.4e-4 0.12422,-0.0718 0.125,-0.0723 0.0236,0.0409 0.27344,0.47265 0.27344,0.47265 2.5e-4,-1.4e-4 0.12615,-0.0718 0.12695,-0.0723 0.0234,0.0405 0.27149,0.46875 0.27149,0.46875 h 0.002 c 2.5e-4,-1.4e-4 0.12421,-0.0718 0.125,-0.0723 0.0236,0.0409 0.27344,0.47266 0.27344,0.47266 2.6e-4,-1.5e-4 0.12614,-0.0718 0.12695,-0.0723 0.0234,0.0405 0.27148,0.47071 0.27149,0.47071 h 0.002 c 2.5e-4,-1.5e-4 0.12614,-0.0718 0.12695,-0.0723 0.0235,0.0406 0.27142,0.47056 0.27149,0.4707 2.6e-4,-1.5e-4 0.12421,-0.0718 0.125,-0.0723 0.0236,0.0409 0.27343,0.47265 0.27343,0.47265 2.6e-4,-1.5e-4 0.12615,-0.0718 0.12696,-0.0723 0.0234,0.0405 0.27148,0.4707 0.27148,0.4707 h 0.002 c 2.6e-4,-1.5e-4 0.1242,-0.0718 0.125,-0.0723 0.0236,0.0409 0.27344,0.47265 0.27344,0.47265 2.6e-4,-1.5e-4 0.12614,-0.0718 0.12695,-0.0723 0.0234,0.0405 0.27149,0.4707 0.27149,0.4707 h 0.002 c 2.6e-4,-1.5e-4 0.12615,-0.0718 0.12696,-0.0723 0.0235,0.0406 0.2714,0.47058 0.27148,0.47071 2.6e-4,-1.5e-4 0.12419,-0.0718 0.125,-0.0723 0.0236,0.0409 0.27344,0.47266 0.27344,0.47266 2.7e-4,-1.6e-4 0.12613,-0.0718 0.12695,-0.0723 0.0234,0.0405 0.27148,0.47071 0.27148,0.47071 h 0.002 c 2.7e-4,-1.6e-4 0.1242,-0.0718 0.125,-0.0723 0.0236,0.0409 0.27343,0.47266 0.27343,0.47266 2.8e-4,-1.6e-4 0.12614,-0.0718 0.12696,-0.0723 0.0234,0.0405 0.27148,0.4707 0.27148,0.4707 h 0.002 c 2.8e-4,-1.6e-4 0.12612,-0.0718 0.12695,-0.0723 0.0235,0.0406 0.2714,0.47057 0.27148,0.4707 2.7e-4,-1.6e-4 0.12419,-0.0718 0.125,-0.0723 0.0236,0.0409 0.27344,0.47265 0.27344,0.47265 2.8e-4,-1.6e-4 0.12612,-0.0718 0.12695,-0.0723 0.0234,0.0405 0.27149,0.4707 0.27149,0.4707 h 0.002 c 2.8e-4,-1.6e-4 0.12418,-0.0718 0.125,-0.0723 0.0236,0.0409 0.27344,0.47266 0.27344,0.47266 2.8e-4,-1.6e-4 0.12612,-0.0718 0.12695,-0.0723 0.0234,0.0405 0.27149,0.47071 0.27149,0.47071 h 0.002 c 2.8e-4,-1.7e-4 0.12611,-0.0718 0.12695,-0.0723 0.0235,0.0406 0.27142,0.47056 0.27149,0.4707 2.9e-4,-1.7e-4 0.12418,-0.0718 0.125,-0.0723 0.0236,0.0409 0.27343,0.47265 0.27343,0.47265 2.9e-4,-1.6e-4 0.12612,-0.0718 0.12696,-0.0723 0.0234,0.0405 0.27148,0.4707 0.27148,0.4707 h 0.002 c 2.8e-4,-1.6e-4 0.1261,-0.0718 0.12695,-0.0723 0.0235,0.0406 0.2714,0.47057 0.27148,0.4707 2.9e-4,-1.7e-4 0.12417,-0.0718 0.125,-0.0723 0.0236,0.0409 0.27344,0.47266 0.27344,0.47266 2.9e-4,-1.7e-4 0.1261,-0.0718 0.12695,-0.0723 0.0234,0.0405 0.27149,0.47071 0.27149,0.47071 h 0.002 c 2.9e-4,-1.7e-4 0.12417,-0.0718 0.125,-0.0723 0.0236,0.0409 0.27344,0.47266 0.27344,0.47266 3e-4,-1.7e-4 0.1261,-0.0718 0.12695,-0.0723 0.0234,0.0405 0.27149,0.47071 0.27149,0.47071 h 0.002 c 3e-4,-1.8e-4 0.1261,-0.0718 0.12695,-0.0723 0.0234,0.0406 0.27142,0.47056 0.27149,0.4707 3e-4,-1.8e-4 0.12417,-0.0718 0.125,-0.0723 0.0236,0.0409 0.27343,0.47265 0.27343,0.47265 3.1e-4,-1.8e-4 0.12611,-0.0718 0.12696,-0.0723 0.0234,0.0405 0.27148,0.4707 0.27148,0.4707 h 0.002 c 3e-4,-1.7e-4 0.12416,-0.0718 0.125,-0.0723 0.0236,0.0409 0.27344,0.47265 0.27344,0.47265 3.1e-4,-1.8e-4 0.1261,-0.0718 0.12695,-0.0723 0.0234,0.0405 0.27149,0.4707 0.27149,0.4707 h 0.002 c 3.1e-4,-1.8e-4 0.1261,-0.0718 0.12696,-0.0723 0.0234,0.0406 0.2714,0.47058 0.27148,0.47071 3.1e-4,-1.8e-4 0.12415,-0.0718 0.125,-0.0723 0.0236,0.0409 0.27344,0.47266 0.27344,0.47266 3.2e-4,-1.8e-4 0.12608,-0.0718 0.12695,-0.0723 0.0234,0.0405 0.27149,0.47071 0.27149,0.47071 h 0.002 c 3.1e-4,-1.8e-4 0.12414,-0.0718 0.125,-0.0723 0.0236,0.0409 0.27344,0.47266 0.27344,0.47266 3.2e-4,-1.9e-4 0.12608,-0.0718 0.12695,-0.0723 0.0234,0.0405 0.27148,0.4707 0.27148,0.4707 h 0.002 c 3.2e-4,-1.9e-4 0.12608,-0.0718 0.12695,-0.0723 0.0234,0.0406 0.2714,0.47057 0.27148,0.4707 3.2e-4,-1.8e-4 0.12414,-0.0718 0.125,-0.0723 0.0236,0.0409 0.27344,0.47265 0.27344,0.47265 3.2e-4,-1.8e-4 0.12608,-0.0718 0.12695,-0.0723 0.0234,0.0405 0.27149,0.4707 0.27149,0.4707 h 0.002 c 3.3e-4,-1.9e-4 0.12609,-0.0718 0.12696,-0.0723 0.0234,0.0406 0.2714,0.47058 0.27148,0.47071 3.2e-4,-1.9e-4 0.12413,-0.0718 0.125,-0.0723 0.0236,0.0409 0.27344,0.47266 0.27344,0.47266 h 0.002 c 3.3e-4,-1.9e-4 0.12607,-0.0718 0.12695,-0.0723 0.0234,0.0406 0.27142,0.47058 0.27149,0.47071 3.3e-4,-1.9e-4 0.12414,-0.0718 0.125,-0.0723 0.0236,0.0409 0.27343,0.47266 0.27343,0.47266 3.4e-4,-2e-4 0.12608,-0.0718 0.12696,-0.0723 0.0234,0.0405 0.27148,0.4707 0.27148,0.4707 h 0.002 c 3.4e-4,-2e-4 0.12606,-0.0718 0.12695,-0.0723 0.0234,0.0406 0.2714,0.47057 0.27148,0.4707 3.3e-4,-1.9e-4 0.12413,-0.0718 0.125,-0.0723 0.0236,0.0409 0.27344,0.47265 0.27344,0.47265 h 0.002 c 3.4e-4,-1.9e-4 0.12413,-0.0718 0.125,-0.0723 0.0234,0.0405 0.27149,0.4707 0.27149,0.4707 h 0.002 c 3.4e-4,-1.9e-4 0.12412,-0.0718 0.125,-0.0723 0.0236,0.0409 0.27344,0.47266 0.27344,0.47266 3.4e-4,-2e-4 0.12605,-0.0717 0.12695,-0.0723 0.0234,0.0405 0.27149,0.47071 0.27149,0.47071 h 0.002 c 3.4e-4,-2e-4 0.12605,-0.0718 0.12695,-0.0723 0.0234,0.0406 0.27142,0.47056 0.27149,0.4707 3.5e-4,-2e-4 0.12412,-0.0718 0.125,-0.0723 0.0236,0.0409 0.27343,0.47265 0.27343,0.47265 h 0.002 c 3.5e-4,-1.9e-4 0.12412,-0.0718 0.125,-0.0723 0.0234,0.0405 0.27148,0.4707 0.27148,0.4707 h 0.002 c 3.4e-4,-2e-4 0.12412,-0.0718 0.125,-0.0723 0.0236,0.0409 0.27343,0.47265 0.27343,0.47265 3.5e-4,-2.1e-4 0.12606,-0.0718 0.12696,-0.0723 0.0234,0.0405 0.27148,0.4707 0.27148,0.4707 h 0.002 c 3.6e-4,-2e-4 0.12606,-0.0717 0.12696,-0.0723 0.0234,0.0406 0.2714,0.47058 0.27148,0.47071 3.5e-4,-2e-4 0.12411,-0.0717 0.125,-0.0723 0.0236,0.0409 0.27344,0.47266 0.27344,0.47266 3.7e-4,-2.1e-4 0.12604,-0.0717 0.12695,-0.0723 0.0234,0.0405 0.27149,0.47071 0.27149,0.47071 h 0.002 c 3.6e-4,-2.1e-4 0.12604,-0.0736 0.12695,-0.0742 0.0234,0.0406 0.27142,0.47056 0.27149,0.4707 3.6e-4,-2.1e-4 0.12411,-0.0717 0.125,-0.0723 0.0236,0.0409 0.27343,0.47265 0.27343,0.47265 h 0.002 c 3.7e-4,-2.1e-4 0.12603,-0.0717 0.12695,-0.0723 0.0234,0.0406 0.27141,0.47057 0.27148,0.4707 3.6e-4,-2.1e-4 0.1241,-0.0717 0.125,-0.0723 0.0236,0.0409 0.27344,0.47266 0.27344,0.47266 3.7e-4,-2.2e-4 0.12604,-0.0717 0.12695,-0.0723 0.0234,0.0405 0.27149,0.47071 0.27149,0.47071 h 0.002 c 3.7e-4,-2.1e-4 0.12604,-0.0717 0.12696,-0.0723 0.0234,0.0406 0.2714,0.47057 0.27148,0.4707 3.7e-4,-2.1e-4 0.12409,-0.0717 0.125,-0.0723 0.0236,0.0409 0.27344,0.47265 0.27344,0.47265 h 0.002 c 3.7e-4,-2.1e-4 0.12603,-0.0717 0.12695,-0.0723 0.0234,0.0406 0.27141,0.47057 0.27149,0.4707 3.7e-4,-2.2e-4 0.12409,-0.0717 0.125,-0.0723 0.0236,0.0408 0.27344,0.47265 0.27344,0.47265 3.8e-4,-2.2e-4 0.12602,-0.0717 0.12695,-0.0723 0.0234,0.0405 0.27148,0.4707 0.27148,0.4707 h 0.002 c 3.8e-4,-2.2e-4 0.12602,-0.0717 0.12695,-0.0723 0.0234,0.0406 0.2714,0.47058 0.27148,0.47071 3.8e-4,-2.2e-4 0.12409,-0.0717 0.125,-0.0723 0.0236,0.0408 0.27344,0.47266 0.27344,0.47266 h 0.002 c 3.8e-4,-2.2e-4 0.12408,-0.0717 0.125,-0.0723 0.0234,0.0405 0.27149,0.47071 0.27149,0.47071 h 0.002 c 3.8e-4,-2.2e-4 0.12408,-0.0717 0.125,-0.0723 0.0236,0.0408 0.27344,0.47266 0.27344,0.47266 3.9e-4,-2.2e-4 0.12601,-0.0717 0.12695,-0.0723 0.0234,0.0404 0.27149,0.4707 0.27149,0.4707 h 0.002 c 3.9e-4,-2.3e-4 0.12601,-0.0717 0.12695,-0.0723 0.0234,0.0406 0.27142,0.47057 0.27149,0.4707 3.9e-4,-2.3e-4 0.12408,-0.0717 0.125,-0.0723 0.0236,0.0408 0.27343,0.47265 0.27343,0.47265 h 0.002 c 4e-4,-2.3e-4 0.12408,-0.0717 0.125,-0.0723 0.0234,0.0405 0.27148,0.4707 0.27148,0.4707 h 0.002 c 4e-4,-2.3e-4 0.12407,-0.0717 0.125,-0.0723 0.0236,0.0408 0.27343,0.47266 0.27343,0.47266 4e-4,-2.3e-4 0.12601,-0.0717 0.12696,-0.0723 0.0234,0.0405 0.27148,0.4707 0.27148,0.4707 h 0.002 c 4e-4,-2.3e-4 0.12601,-0.0717 0.12696,-0.0723 0.0234,0.0405 0.2714,0.47058 0.27148,0.47071 4e-4,-2.3e-4 0.12406,-0.0717 0.125,-0.0723 0.0236,0.0408 0.27344,0.47266 0.27344,0.47266 h 0.002 c 4e-4,-2.3e-4 0.12406,-0.0717 0.125,-0.0723 0.0234,0.0405 0.27149,0.4707 0.27149,0.4707 h 0.002 c 4e-4,-2.4e-4 0.12599,-0.0717 0.12695,-0.0723 0.0234,0.0406 0.27142,0.47057 0.27149,0.4707 4.1e-4,-2.4e-4 0.12406,-0.0717 0.125,-0.0723 0.0236,0.0408 0.27343,0.47265 0.27343,0.47265 h 0.002 l 0.12695,-0.0723 c 0.0234,0.0405 0.27142,0.47057 0.27149,0.4707 4e-4,-2.3e-4 0.12406,-0.0717 0.125,-0.0723 0.0236,0.0408 0.27343,0.47266 0.27343,0.47266 h 0.002 c 4.1e-4,-2.4e-4 0.12406,-0.0717 0.125,-0.0723 0.0234,0.0404 0.27148,0.47071 0.27148,0.47071 h 0.002 c 4.2e-4,-2.4e-4 0.126,-0.0717 0.12696,-0.0723 0.0234,0.0405 0.2714,0.47058 0.27148,0.47071 4.1e-4,-2.4e-4 0.12405,-0.0717 0.125,-0.0723 0.0236,0.0408 0.27344,0.47266 0.27344,0.47266 h 0.002 c 4.2e-4,-2.4e-4 0.12598,-0.0717 0.12695,-0.0723 0.0234,0.0405 0.27141,0.47057 0.27149,0.4707 4.1e-4,-2.4e-4 0.12404,-0.0717 0.125,-0.0723 0.0236,0.0408 0.27344,0.47265 0.27344,0.47265 4.3e-4,-2.5e-4 0.12597,-0.0717 0.12695,-0.0723 0.0234,0.0404 0.27148,0.4707 0.27148,0.4707 h 0.004 c 4.3e-4,-2.5e-4 0.12597,-0.0717 0.12695,-0.0723 0.0234,0.0405 0.27142,0.47057 0.27149,0.4707 4.2e-4,-2.4e-4 0.12404,-0.0717 0.125,-0.0723 0.0236,0.0408 0.27344,0.47266 0.27343,0.47266 h 0.002 c 4.3e-4,-2.5e-4 0.12404,-0.0717 0.125,-0.0723 0.0234,0.0404 0.27148,0.47071 0.27148,0.47071 h 0.002 c 4.3e-4,-2.4e-4 0.12404,-0.0717 0.125,-0.0723 0.0236,0.0408 0.27343,0.47266 0.27343,0.47266 4.3e-4,-2.5e-4 0.12598,-0.0717 0.12696,-0.0723 l 0.27148,0.4707 h 0.002 c 4.3e-4,-2.4e-4 0.12598,-0.0717 0.12696,-0.0723 0.0234,0.0405 0.2714,0.47057 0.27148,0.4707 4.3e-4,-2.5e-4 0.12403,-0.0717 0.125,-0.0723 0.0236,0.0408 0.27344,0.47265 0.27344,0.47265 h 0.002 c 4.3e-4,-2.5e-4 0.12402,-0.0717 0.125,-0.0723 l 0.27149,0.4707 h 0.002 c 4.5e-4,-2.6e-4 0.12596,-0.0717 0.12695,-0.0723 0.0234,0.0405 0.27141,0.47058 0.27149,0.47071 4.4e-4,-2.5e-4 0.12403,-0.0717 0.125,-0.0723 0.0236,0.0408 0.27343,0.47266 0.27343,0.47266 h 0.002 c 4.5e-4,-2.5e-4 0.12596,-0.0717 0.12695,-0.0723 0.0234,0.0405 0.27141,0.47058 0.27149,0.47071 4.3e-4,-2.5e-4 0.12402,-0.0717 0.125,-0.0723 0.0236,0.0408 0.27343,0.47266 0.27343,0.47266 h 0.002 c 4.4e-4,-2.5e-4 0.12402,-0.0717 0.125,-0.0723 l 0.27148,0.4707 h 0.002 c 4.5e-4,-2.6e-4 0.12596,-0.0717 0.12696,-0.0723 0.0234,0.0405 0.27141,0.47057 0.27148,0.4707 4.5e-4,-2.6e-4 0.12402,-0.0717 0.125,-0.0723 0.0236,0.0408 0.27344,0.47265 0.27344,0.47265 h 0.002 c 4.6e-4,-2.7e-4 0.12594,-0.0717 0.12695,-0.0723 0.0234,0.0405 0.27142,0.47056 0.27149,0.4707 4.6e-4,-2.7e-4 0.12401,-0.0717 0.125,-0.0723 0.0236,0.0408 0.27344,0.47266 0.27344,0.47266 h 0.002 c 4.6e-4,-2.7e-4 0.12401,-0.0717 0.125,-0.0723 0.0233,0.0404 0.27148,0.4707 0.27148,0.4707 h 0.002 c 4.6e-4,-2.6e-4 0.12594,-0.0717 0.12695,-0.0723 0.0234,0.0405 0.2714,0.47058 0.27148,0.47071 4.6e-4,-2.6e-4 0.124,-0.0717 0.125,-0.0723 0.0236,0.0408 0.27344,0.47266 0.27344,0.47266 h 0.002 c 4.6e-4,-2.7e-4 0.12595,-0.0717 0.12696,-0.0723 0.0234,0.0405 0.2714,0.47057 0.27148,0.4707 4.6e-4,-2.7e-4 0.124,-0.0717 0.125,-0.0723 0.0236,0.0408 0.27344,0.47265 0.27344,0.47265 h 0.002 c 4.6e-4,-2.7e-4 0.124,-0.0717 0.125,-0.0723 l 0.27149,0.4707 h 0.002 c 4.8e-4,-2.7e-4 0.12593,-0.0717 0.12695,-0.0723 0.0234,0.0405 0.27142,0.47057 0.27149,0.4707 4.7e-4,-2.7e-4 0.124,-0.0736 0.125,-0.0742 0.0236,0.0408 0.27344,0.47266 0.27344,0.47266 h 0.002 c 4.7e-4,-2.8e-4 0.124,-0.0717 0.125,-0.0723 0.0233,0.0404 0.27148,0.4707 0.27148,0.4707 h 0.002 c 4.7e-4,-2.7e-4 0.12399,-0.0717 0.125,-0.0723 0.0236,0.0408 0.27343,0.47266 0.27343,0.47266 l 0.002,-0.002 c 4.7e-4,-2.7e-4 0.12205,-0.0717 0.12304,-0.0723 0.0236,0.0408 0.27344,0.47265 0.27344,0.47265 h 0.002 c 4.8e-4,-2.8e-4 0.12593,-0.0717 0.12696,-0.0723 0.0234,0.0405 0.2714,0.47057 0.27148,0.4707 4.7e-4,-2.8e-4 0.12398,-0.0717 0.125,-0.0723 0.0236,0.0408 0.27344,0.47266 0.27344,0.47266 h 0.002 c 4.8e-4,-2.8e-4 0.12398,-0.0717 0.125,-0.0723 l 0.27149,0.4707 h 0.002 c 4.9e-4,-2.8e-4 0.12591,-0.0717 0.12695,-0.0723 0.0234,0.0405 0.27142,0.47058 0.27149,0.47071 4.8e-4,-2.8e-4 0.12398,-0.0717 0.125,-0.0723 0.0236,0.0408 0.27343,0.47266 0.27343,0.47266 h 0.002 c 4.9e-4,-2.9e-4 0.12592,-0.0717 0.12695,-0.0723 0.0234,0.0405 0.27141,0.47057 0.27149,0.4707 4.9e-4,-2.8e-4 0.12398,-0.0717 0.125,-0.0723 0.0235,0.0408 0.27343,0.47265 0.27343,0.47265 h 0.002 c 4.9e-4,-2.8e-4 0.12398,-0.0717 0.125,-0.0723 l 0.27148,0.4707 h 0.002 c 4.9e-4,-2.9e-4 0.12592,-0.0717 0.12696,-0.0723 0.0234,0.0405 0.2714,0.47057 0.27148,0.4707 4.9e-4,-2.9e-4 0.12397,-0.0717 0.125,-0.0723 0.0235,0.0408 0.27344,0.47266 0.27344,0.47266 h 0.002 c 5e-4,-2.9e-4 0.12591,-0.0717 0.12695,-0.0723 0.0234,0.0405 0.27142,0.47057 0.27149,0.47071 5e-4,-2.9e-4 0.12397,-0.0717 0.125,-0.0723 0.01,0.0174 0.0618,0.10538 0.11719,0.20117 H 280 c 4.43201,0 8,-3.56799 8,-8 V 84.837891 h -0.27539 v -0.398438 h -0.39844 v -0.398437 h -0.002 -0.39844 v -0.400391 h -0.39844 v -0.398437 h -0.002 -0.39844 v -0.400391 h -0.39843 v -0.398438 h -0.39844 v -0.398437 h -0.002 -0.39843 v -0.400391 h -0.39844 v -0.398437 h -0.002 -0.39844 v -0.400391 h -0.39844 v -0.398437 h -0.40039 v -0.398438 h -0.002 -0.39844 v -0.40039 h -0.3982 V 79.25 h -0.40039 v -0.398438 h -0.39843 v -0.40039 h -0.39844 v -0.398438 h -0.002 -0.39843 v -0.40039 h -0.39844 v -0.398438 h -0.39844 v -0.398437 h -0.002 -0.39844 v -0.400391 h -0.39844 v -0.398437 h -0.002 -0.39844 V 75.65625 h -0.39843 v -0.398438 h -0.39844 v -0.398437 h -0.002 -0.39843 v -0.400391 h -0.39844 v -0.398437 h -0.002 -0.39844 v -0.400391 h -0.39844 v -0.398437 h -0.39844 v -0.398438 h -0.002 -0.39844 v -0.40039 h -0.39843 v -0.398438 h -0.002 -0.39843 v -0.400391 h -0.39844 v -0.398437 h -0.39844 v -0.398437 h -0.002 -0.39844 v -0.400391 h -0.39844 v -0.398438 h -0.002 -0.39844 v -0.40039 h -0.39844 v -0.398438 h -0.39843 v -0.398437 h -0.002 -0.39843 v -0.400391 h -0.39844 v -0.398437 h -0.002 -0.39649 v -0.398438 h -0.002 -0.39844 v -0.40039 H 270.1582 V 66.875 h -0.002 -0.39844 v -0.400391 h -0.39843 v -0.398437 h -0.39844 v -0.398438 h -0.002 -0.39843 v -0.40039 h -0.39844 v -0.398438 h -0.002 -0.39844 v -0.40039 h -0.39844 v -0.398438 h -0.39844 v -0.398437 h -0.002 -0.39844 V 63.28125 h -0.39843 v -0.398438 h -0.002 -0.39844 v -0.40039 h -0.39843 v -0.398438 h -0.39844 v -0.398437 h -0.002 -0.39844 v -0.400391 h -0.39844 v -0.398437 h -0.002 -0.39844 v -0.400391 h -0.39844 v -0.398437 h -0.39843 v -0.398438 h -0.002 -0.39843 v -0.400391 h -0.39844 v -0.398437 h -0.002 -0.39649 v -0.398437 h -0.002 -0.39844 v -0.400391 h -0.39844 v -0.398438 h -0.002 -0.39844 v -0.40039 h -0.39844 v -0.398438 h -0.002 -0.39648 v -0.398437 h -0.002 -0.39843 v -0.400391 h -0.39844 v -0.398437 h -0.002 -0.39844 v -0.400391 h -0.39844 V 54.898438 H 257.7832 V 54.5 h -0.002 -0.39844 v -0.400391 h -0.39843 v -0.398437 h -0.002 -0.39844 v -0.400391 h -0.39843 v -0.398437 h -0.39844 v -0.398438 h -0.002 -0.39844 v -0.40039 h -0.39844 v -0.398438 h -0.002 -0.39649 v -0.40039 h -0.002 -0.39844 V 50.90625 h -0.39843 v -0.398438 h -0.002 -0.39844 v -0.40039 h -0.39843 v -0.398438 h -0.002 -0.39648 v -0.398437 h -0.002 -0.39844 v -0.400391 h -0.39844 v -0.398437 h -0.002 -0.39844 v -0.400391 h -0.39844 v -0.398437 h -0.002 -0.39648 v -0.398438 h -0.002 -0.39843 v -0.400391 h -0.39844 v -0.398437 h -0.002 -0.39844 V 46.115234 H 249 v -0.398437 h -0.39648 v -0.398438 h -0.002 -0.39844 v -0.40039 h -0.39843 v -0.398438 h -0.002 -0.39843 v -0.40039 h -0.39844 v -0.398438 h -0.002 -0.39649 v -0.398437 h -0.002 -0.39844 v -0.400391 h -0.39844 v -0.398437 h -0.002 -0.39648 v -0.400391 h -0.002 -0.39843 v -0.398438 h -0.39844 v -0.398437 h -0.002 -0.39844 v -0.400391 h -0.39844 v -0.398437 h -0.002 -0.39649 v -0.400391 h -0.002 -0.39844 v -0.398437 h -0.39844 v -0.398438 h -0.002 -0.39844 v -0.40039 h -0.39843 V 38.53125 h -0.002 -0.39648 v -0.398438 h -0.002 -0.39844 v -0.40039 h -0.39844 v -0.398438 h -0.002 -0.39844 v -0.40039 h -0.39844 v -0.398438 h -0.002 -0.39648 v -0.398437 h -0.002 -0.39844 v -0.400391 h -0.39843 v -0.398437 h -0.002 -0.39843 V 34.9375 h -0.39844 v -0.398438 h -0.002 -0.39649 v -0.398437 h -0.002 -0.39844 v -0.400391 h -0.39844 v -0.398437 h -0.002 -0.39648 v -0.400391 h -0.002 -0.39844 v -0.398437 h -0.004 -0.39649 v -0.398438 h -0.002 -0.39844 v -0.40039 h -0.39843 v -0.398438 h -0.002 -0.39648 v -0.400391 h -0.002 -0.39844 v -0.398437 h -0.39844 v -0.398437 h -0.002 -0.39844 v -0.400391 h -0.39844 v -0.398438 h -0.002 -0.39648 v -0.398437 h -0.002 -0.39844 v -0.400391 h -0.39843 v -0.398437 h -0.002 -0.39843 v -0.400391 h -0.39844 v -0.398437 h -0.002 -0.39649 v -0.398438 h -0.002 -0.39844 v -0.40039 H 229.438 V 26.15625 h -0.002 -0.39844 v -0.398438 h -0.39844 v -0.40039 h -0.002 -0.39648 v -0.398438 h -0.002 -0.39843 v -0.40039 h -0.39844 v -0.398438 h -0.002 -0.39649 v -0.40039 h -0.002 -0.39844 v -0.398438 h -0.002 -0.39649 v -0.398437 h -0.002 -0.39844 V 22.5625 h -0.39843 v -0.398438 h -0.002 -0.39648 v -0.398437 h -0.002 -0.39844 v -0.400391 h -0.002 -0.39648 v -0.398437 h -0.002 -0.39844 v -0.400391 h -0.39844 v -0.398437 h -0.002 -0.39649 v -0.400391 h -0.002 -0.39844 v -0.398437 h -0.002 -0.39648 v -0.398438 h -0.002 -0.39843 v -0.400391 h -0.39844 v -0.398437 h -0.002 -0.39648 v -0.398437 h -0.002 -0.39844 v -0.400391 h -0.39844 v -0.398438 h -0.002 -0.39844 v -0.398437 h -0.39844 v -0.400391 h -0.002 -0.39648 v -0.398437 h -0.002 -0.39843 v -0.400391 h -0.39844 v -0.398437 h -0.002 -0.39649 v -0.398438 h -0.002 -0.39844 v -0.40039 h -0.002 -0.39649 V 13.78125 h -0.002 -0.39844 v -0.400391 h -0.39844 v -0.398437 h -0.002 -0.39648 v -0.398438 h -0.002 -0.39843 v -0.40039 h -0.002 -0.39648 v -0.398438 h -0.002 -0.39844 v -0.40039 h -0.39844 v -0.398438 h -0.002 -0.39649 v -0.398437 h -0.002 -0.39844 V 10.1875 h -0.002 -0.39648 V 9.7890625 h -0.002 -0.39843 V 9.3886719 h -0.39844 V 8.9902344 h -0.004 H 211.87 V 8.5917969 h -0.002 -0.39843 V 8.1914062 h -0.002 -0.39648 V 7.7929688 h -0.002 -0.39844 V 7.3945312 h -0.39844 V 6.9941406 h -0.002 -0.39649 V 6.5957031 h -0.002 -0.39844 V 6.1953125 h -0.39844 V 5.796875 h -0.002 -0.39648 V 5.3984375 h -0.002 -0.39843 V 4.9980469 h -0.002 -0.39648 V 4.5996094 h -0.002 -0.39844 V 4.1992188 h -0.39844 V 3.8007812 h -0.002 -0.39649 V 3.4023438 h -0.002 -0.39844 V 3.0019531 h -0.002 -0.39648 V 2.6035156 h -0.002 -0.39843 V 2.203125 h -0.39844 V 1.8046875 h -0.002 -0.39648 V 1.40625 h -0.002 -0.39844 V 1.0058594 h -0.002 -0.39649 V 0.60742188 h -0.002 -0.39844 V 0.20703125 H 203.086 v -0.3984375 h -0.002 -0.39648 v -0.3984375 h -0.002 -0.39843 v -0.40039063 h -0.002 -0.39648 V -1.3886719 h -0.002 -0.39843 v -0.3984375 h -0.39844 V -2.1875 h -0.002 -0.39649 v -0.3984375 h -0.002 -0.39844 v -0.4003906 h -0.002 -0.39649 v -0.3984375 h -0.002 -0.39648 v -0.3984375 h -0.002 -0.39843 v -0.4003907 h -0.002 -0.39648 v -0.3984374 h -0.002 -0.39844 v -0.4003907 h -0.002 -0.39649 v -0.3984375 h -0.002 -0.39649 v -0.3984375 h -0.002 -0.39844 v -0.4003906 h -0.002 -0.39649 V -6.578125 h -0.002 -0.39844 v -0.4003906 h -0.39843 v -0.3984375 h -0.002 -0.39648 v -0.3984375 h -0.002 -0.39844 v -0.4003906 h -0.002 -0.39649 v -0.3984376 h -0.002 -0.39844 v -0.4003906 h -0.39844 v -0.3984375 h -0.002 -0.39648 v -0.3984375 h -0.002 -0.39843 v -0.4003906 h -0.002 -0.39648 v -0.398437 h -0.004 -0.39844 v -0.400391 h -0.39648 v -0.398438 h -0.004 -0.39648 v -0.398437 h -0.002 -0.39844 v -0.400391 h -0.002 -0.39649 v -0.398437 h -0.002 -0.39649 v -0.398438 h -0.002 -0.39844 v -0.40039 h -0.002 -0.39649 v -0.398438 h -0.002 -0.39844 v -0.40039 h -0.002 -0.39648 V -14.5625 h -0.002 -0.39648 v -0.398438 h -0.002 -0.39844 v -0.40039 h -0.002 -0.39649 v -0.398438 h -0.002 -0.39844 v -0.40039 h -0.002 -0.39649 v -0.398438 h -0.002 -0.39648 v -0.398437 h -0.002 -0.39843 v -0.400391 h -0.002 -0.39648 v -0.398437 h -0.002 -0.39843 v -0.400391 h -0.39844 v -0.398438 h -0.002 -0.39649 v -0.398437 h -0.002 -0.39844 v -0.400391 h -0.002 -0.39649 v -0.398437 h -0.002 -0.39844 v -0.400391 h -0.39843 v -0.398437 h -0.002 -0.39648 v -0.398438 h -0.002 -0.39843 v -0.40039 h -0.002 -0.39648 v -0.398438 h -0.002 -0.39649 v -0.398437 h -0.002 -0.39844 v -0.400391 h -0.002 -0.39649 v -0.398437 h -0.002 -0.39844 v -0.400391 h -0.002 -0.39648 v -0.398438 h -0.002 -0.39648 v -0.398437 h -0.002 -0.39844 v -0.400391 h -0.002 -0.39649 v -0.398437 h -0.002 -0.39844 v -0.400391 h -0.002 -0.39649 v -0.398437 h -0.002 -0.39649 v -0.398438 h -0.002 -0.39844 v -0.40039 h -0.002 -0.39648 V -26.9375 h -0.002 -0.39843 v -0.400391 h -0.002 -0.39648 v -0.398437 h -0.002 -0.39649 v -0.398438 h -0.002 -0.39258 v -0.40039 h -0.002 -0.39649 v -0.398438 h -0.002 -0.39844 v -0.40039 h -0.002 -0.39649 v -0.398438 h -0.002 -0.39648 v -0.398437 h -0.002 -0.39843 v -0.400391 h -0.002 -0.39648 v -0.398438 h -0.002 -0.39649 v -0.40039 h -0.002 -0.39844 v -0.398438 h -0.002 -0.39649 v -0.398437 h -0.002 -0.39844 v -0.400391 h -0.002 -0.39648 v -0.398437 h -0.002 -0.39648 v -0.398438 h -0.002 -0.39843 v -0.40039 h -0.002 -0.39648 v -0.398438 h -0.002 -0.39844 v -0.400391 h -0.002 -0.39649 v -0.398437 h -0.002 -0.39649 v -0.398437 h -0.002 -0.39844 v -0.400391 h -0.002 -0.39648 v -0.398438 h -0.002 -0.39844 v -0.40039 h -0.004 -0.39649 v -0.398438 h -0.002 -0.39648 v -0.398437 h -0.002 -0.39843 v -0.400391 h -0.002 -0.39648 v -0.398437 h -0.002 -0.39844 v -0.400391 h -0.002 -0.39648 v -0.398437 h -0.002 -0.39649 V -39.3125 h -0.002 -0.39844 v -0.400391 h -0.002 -0.39648 v -0.398437 h -0.002 -0.39648 v -0.400391 h -0.004 -0.39648 v -0.398437 h -0.002 -0.39648 v -0.398438 h -0.002 -0.39844 v -0.40039 h -0.002 -0.39649 v -0.398438 h -0.002 -0.39649 v -0.398437 h -0.002 -0.39844 v -0.400391 h -0.002 -0.39648 v -0.398438 h -0.002 -0.39844 v -0.40039 h -0.002 -0.39648 v -0.398438 h -0.002 -0.39648 v -0.398437 h -0.002 -0.39844 v -0.400391 h -0.002 -0.39649 v -0.398437 h -0.002 -0.39844 v -0.400391 h -0.002 -0.39649 v -0.398437 h -0.002 -0.39648 v -0.398438 h -0.002 -0.39843 v -0.400391 h -0.002 -0.39648 v -0.398437 h -0.002 -0.39844 v -0.400391 h -0.002 -0.39648 v -0.398437 h -0.002 -0.39649 v -0.398438 h -0.002 -0.39844 v -0.40039 h -0.002 -0.39649 v -0.398438 h -0.002 -0.39648 v -0.40039 h -0.004 -0.39648 v -0.398438 h -0.002 -0.39648 v -0.398437 h -0.002 -0.39844 v -0.400391 h -0.002 -0.39648 v -0.398437 h -0.002 -0.39649 v -0.400391 h -0.004 -0.39649 v -0.398438 h -0.004 -0.39649 v -0.398437 h -0.002 -0.39844 v -0.400391 h -0.002 H 150 v -0.398437 z"
			id="path4531"
			transform="matrix(0.26458333,0,0,0.26458333,-4.2333331,250.77336)"
			inkscape:connector-curvature="0"/>
		<path
			style="opacity:1;fill:#03a9f4;fill-opacity:1;stroke:none;stroke-width:0.99999994;stroke-miterlimit:4;stroke-dasharray:none;stroke-opacity:1"
			d="m 32.279166,236.67499 c 0,0 0,25.06101 0,25.06101 0,0 0,0 0,0 -0.207302,0.23557 -0.359633,0.51428 -0.445968,0.81597 0,0 0,0 0,0 0,0 -15.164448,8.75553 -15.164448,8.75553 0,0 0,0 0,0 0,0 1.5875,2.74919 1.5875,2.74919 0,0 0,0 0,0 0,0 15.29829,-8.83254 15.29829,-8.83254 0,0 0,0 0,0 0.103261,0.0163 0.207589,0.0249 0.312126,0.0258 0,0 0,0 0,0 0.561375,0 1.099758,-0.223 1.49671,-0.61995 0.396952,-0.39696 0.619957,-0.93534 0.619957,-1.49671 -1e-6,-2.5e-4 -1e-6,-5.1e-4 -2e-6,-7.6e-4 -0.0011,-0.51399 -0.189178,-1.01003 -0.529165,-1.39554 0,0 0,-10e-5 0,-2.9e-4 0,-0.0975 0,-25.06175 0,-25.06175 0,0 -1.94e-4,0 -5.78e-4,0 -0.04884,0 -3.174422,0 -3.174422,0"
			id="path4554"
			inkscape:connector-curvature="0"/>
	</g>
</svg>
